DataType=double
version=3
OpenSimVersion=4.4-2022-10-11-798caa840
endheader
time	ground_force_r_vx	ground_force_r_vy	ground_force_r_vz	ground_force_r_px	ground_force_r_py	ground_force_r_pz	ground_force_l_vx	ground_force_l_vy	ground_force_l_vz	ground_force_l_px	ground_force_l_py	ground_force_l_pz	ground_torque_r_x	ground_torque_r_y	ground_torque_r_z	ground_torque_l_x	ground_torque_l_y	ground_torque_l_z
3.515	-0.006790644260953975	0.002298797659990114	-0.0001586121583220779	1.855350069519988	0	-0.4464755227581979	-45.17235296254034	595.076976278635	34.4505392108691	1.975805795568374	0	-0.58032829587568	0	3.006729359846666e-12	0	0	0.7723644123047251	0
3.52	-0.01157035352576916	0.003890378057796008	-0.0002459964237738943	1.87482466942695	0	-0.4461886759747861	-43.09362830395104	580.5792927963546	34.40599051510382	1.976779690177202	0	-0.5803752698496123	0	7.396847999559253e-12	0	0	0.7465454365591455	0
3.525	-0.02009619813874996	0.006715463670421866	-0.0003894215758287141	1.894344862690222	0	-0.445929515847005	-41.19550249683146	566.8804140964739	34.12380287577248	1.97770755112423	0	-0.5803888856587374	0	1.903019473774303e-11	0	0	0.6888513639644884	0
3.53	-0.03525715378744079	0.01171659312854438	-0.0006250882159781591	1.913926053568462	0	-0.4456936948985346	-39.40294979618849	554.0264355904216	33.56476649272695	1.978589811946699	0	-0.580372776794097	0	5.05044422081935e-11	0	0	0.613693777721295	0
3.535	-0.06180855273656408	0.0204352321460891	-0.001011317580530654	1.933590642261994	0	-0.4454757964411603	-37.695999154266	542.1478504656565	32.70830130704377	1.979432712767024	0	-0.5803317218256551	0	1.371823401402628e-10	0	0	0.5318190083472274	0
3.54	-0.1073625663940696	0.03532997278659946	-0.001642089305045693	1.953357277599824	0	-0.4452706895955104	-36.02394685628494	531.3051917137387	31.58394243226707	1.980229699836926	0	-0.5802758069304237	0	3.768454749641936e-10	0	0	0.4497228232565504	0
3.545	-0.1831014426329577	0.05998951602840361	-0.002666706201093509	1.973246429907396	0	-0.4450723822013568	-34.35642708801014	521.5118787038418	30.26911531409674	1.980975877473453	0	-0.5802114221009803	0	1.038352621766936e-09	0	0	0.3776688000754547	0
3.55	-0.3042001673704685	0.09926020620634339	-0.004305608953756474	1.993275856340191	0	-0.4448760378498705	-32.6897799308227	512.7984143264	28.77677855871715	1.981680998431591	0	-0.5801385696481256	0	2.83361987173103e-09	0	0	0.3372147144381543	0
3.555	-0.4884703350731335	0.1587853903481915	-0.006877601169640027	2.013463808182085	0	-0.4446760002460594	-30.98041898188505	505.263690038528	27.17829509773517	1.982368237295852	0	-0.5800531618922388	0	7.582947216325242e-09	0	0	0.3290855824765657	0
3.56	-0.7553004872426584	0.244671240483604	-0.0108527061770569	2.033821585777826	0	-0.4444658023859856	-29.2041115843403	498.9255574113049	25.49813905160624	1.9830589358538	0	-0.579954252197032	0	1.968531712290278e-08	0	0	0.3442145535598797	0
3.565	-1.117005887570149	0.3606295182447574	-0.01680871897002037	2.05436670297677	0	-0.4442380570202565	-27.37639679542611	493.8259297239043	23.79717755436991	1.983773325884888	0	-0.5798453777155481	0	4.924070985679041e-08	0	0	0.3761786655143666	0
3.57	-1.570890750454312	0.5056503616069522	-0.02520361217067925	2.075109011019283	0	-0.4439872947040822	-25.50588281332328	489.9723059614516	22.15152797218924	1.984539488551975	0	-0.5797329859558784	0	1.175270654962812e-07	0	0	0.4156546624462507	0
3.575	-2.093272602413146	0.6722257087282363	-0.03614873703450643	2.096048389983352	0	-0.4437089100371173	-23.65538135461121	487.3457641467309	20.69001015381358	1.985382661578862	0	-0.5796204110110234	0	2.654338065039008e-07	0	0	0.4474397676933677	0
3.58	-2.630350330217704	0.8432364027481374	-0.04923634235984245	2.117185271976958	0	-0.4433966304204228	-21.88409332763728	485.8647158431256	19.47496092125635	1.986309915682503	0	-0.5795120405784352	0	5.633483111666671e-07	0	0	0.4628291066096395	0
3.585	-3.097601936088831	0.9918128928240295	-0.0632272113890897	2.13852546530467	0	-0.4430419498682159	-20.22117123881975	485.4525512893001	18.59167631609643	1.987325607004478	0	-0.5794090909024401	0	1.117495111974121e-06	0	0	0.4526618986503195	0
3.59	-3.409257774617523	1.09088709226918	-0.07602530640713533	2.160069337539941	0	-0.4426355301434153	-18.71598004333392	486.0424492252446	18.0407651362362	1.988427751696918	0	-0.5793095318022712	0	2.055834760289477e-06	0	0	0.4136605852308151	0
3.595	-3.485379398301812	1.11506133921718	-0.08476953205659313	2.181815815370574	0	-0.4421658232532951	-17.3539301577805	487.5362214635458	17.76205417056794	1.989609904916468	0	-0.5792119309617229	0	3.488252512229284e-06	0	0	0.3476614232973461	0
3.6	-3.271577634216345	1.047059106409628	-0.08640352058932245	2.203765866300093	0	-0.4416176265023916	-16.11583190980034	489.8124900936309	17.70955223227057	1.990865646539427	0	-0.579111082567885	0	5.397659856215542e-06	0	0	0.2618572766643368	0
3.605	-2.769137573168897	0.8871367954805585	-0.07889701818525016	2.225916458477367	0	-0.4409690992056358	-14.97655255432834	492.7755584435868	17.80285578727434	1.992188315930847	0	-0.5790033768806832	0	7.523815811733003e-06	0	0	0.168451827736213	0
3.61	-2.056975810795956	0.6601168211799958	-0.0626845327098423	2.248253482198359	0	-0.4401845204440416	-13.89990963859632	496.4472880584619	18.01597658948769	1.993580244045081	0	-0.5788853381907197	0	9.288876054863726e-06	0	0	0.0709988278360143	0
